<mxfile host="Electron" modified="2024-05-07T09:54:52.196Z" agent="Mozilla/5.0 (Macintosh; Intel Mac OS X 10_15_7) AppleWebKit/537.36 (KHTML, like Gecko) draw.io/22.1.2 Chrome/114.0.5735.289 Electron/25.9.4 Safari/537.36" etag="Bbh_6IRkmFcmEeDgR3mN" version="22.1.2" type="device">
  <diagram name="Page-1" id="FuAv7pLi2sIDAsRG0R7K">
    <mxGraphModel dx="892" dy="573" grid="1" gridSize="10" guides="1" tooltips="1" connect="1" arrows="1" fold="1" page="1" pageScale="1" pageWidth="850" pageHeight="1100" math="0" shadow="0">
      <root>
        <mxCell id="0" />
        <mxCell id="1" parent="0" />
        <mxCell id="KKwdq_n8aDNH_cKme6rT-11" value="StandaloneCoroutine2" style="rounded=0;whiteSpace=wrap;html=1;fontSize=11;fillColor=#dae8fc;strokeColor=#6c8ebf;" parent="1" vertex="1">
          <mxGeometry x="480" y="690" width="110" height="30" as="geometry" />
        </mxCell>
        <mxCell id="KKwdq_n8aDNH_cKme6rT-12" value="" style="endArrow=classic;html=1;rounded=0;dashed=1;" parent="1" edge="1">
          <mxGeometry width="50" height="50" relative="1" as="geometry">
            <mxPoint x="624.16" y="610" as="sourcePoint" />
            <mxPoint x="534.16" y="690" as="targetPoint" />
          </mxGeometry>
        </mxCell>
        <mxCell id="KKwdq_n8aDNH_cKme6rT-16" value="" style="endArrow=classic;html=1;rounded=0;fontColor=#FF0000;strokeColor=#FF9999;dashed=1;" parent="1" edge="1">
          <mxGeometry width="50" height="50" relative="1" as="geometry">
            <mxPoint x="523.16" y="690" as="sourcePoint" />
            <mxPoint x="613.16" y="610" as="targetPoint" />
          </mxGeometry>
        </mxCell>
        <mxCell id="KKwdq_n8aDNH_cKme6rT-17" value="2. cancel:parent" style="text;html=1;align=center;verticalAlign=middle;resizable=0;points=[];autosize=1;strokeColor=none;fillColor=none;fontSize=10;" parent="1" vertex="1">
          <mxGeometry x="482.15999999999997" y="630" width="90" height="30" as="geometry" />
        </mxCell>
        <mxCell id="KKwdq_n8aDNH_cKme6rT-19" value="" style="endArrow=classic;html=1;rounded=0;strokeColor=#FF9999;dashed=1;" parent="1" edge="1">
          <mxGeometry width="50" height="50" relative="1" as="geometry">
            <mxPoint x="634.16" y="610" as="sourcePoint" />
            <mxPoint x="724.16" y="690" as="targetPoint" />
          </mxGeometry>
        </mxCell>
        <mxCell id="KKwdq_n8aDNH_cKme6rT-20" value="3. cancel:child" style="text;html=1;align=center;verticalAlign=middle;resizable=0;points=[];autosize=1;strokeColor=none;fillColor=none;fontSize=10;" parent="1" vertex="1">
          <mxGeometry x="674.16" y="630" width="90" height="30" as="geometry" />
        </mxCell>
        <mxCell id="KKwdq_n8aDNH_cKme6rT-21" value="" style="endArrow=classic;html=1;rounded=0;dashed=1;" parent="1" edge="1">
          <mxGeometry width="50" height="50" relative="1" as="geometry">
            <mxPoint x="713.16" y="690" as="sourcePoint" />
            <mxPoint x="623.16" y="610" as="targetPoint" />
          </mxGeometry>
        </mxCell>
        <mxCell id="KKwdq_n8aDNH_cKme6rT-22" value="StandaloneCoroutine3" style="rounded=0;whiteSpace=wrap;html=1;fontSize=11;fillColor=#dae8fc;strokeColor=#6c8ebf;" parent="1" vertex="1">
          <mxGeometry x="654.16" y="690" width="110" height="30" as="geometry" />
        </mxCell>
        <mxCell id="KKwdq_n8aDNH_cKme6rT-24" value="X" style="text;html=1;align=center;verticalAlign=middle;resizable=0;points=[];autosize=1;strokeColor=none;fillColor=none;fontColor=#FF9999;" parent="1" vertex="1">
          <mxGeometry x="450" y="690" width="30" height="30" as="geometry" />
        </mxCell>
        <mxCell id="KKwdq_n8aDNH_cKme6rT-25" value="1. throw exception" style="text;html=1;align=center;verticalAlign=middle;resizable=0;points=[];autosize=1;strokeColor=none;fillColor=none;fontSize=10;" parent="1" vertex="1">
          <mxGeometry x="484.15999999999997" y="720" width="100" height="30" as="geometry" />
        </mxCell>
        <mxCell id="KKwdq_n8aDNH_cKme6rT-28" value="" style="shape=curlyBracket;whiteSpace=wrap;html=1;rounded=1;labelPosition=left;verticalLabelPosition=middle;align=right;verticalAlign=middle;direction=south;strokeWidth=3;" parent="1" vertex="1">
          <mxGeometry x="459.48" y="292.16" width="342.72" height="41.67" as="geometry" />
        </mxCell>
        <mxCell id="KKwdq_n8aDNH_cKme6rT-29" value="supervisorJobCoroutineScope" style="text;html=1;align=center;verticalAlign=middle;resizable=0;points=[];autosize=1;strokeColor=none;fillColor=none;fontStyle=1" parent="1" vertex="1">
          <mxGeometry x="530.84" y="250" width="200" height="30" as="geometry" />
        </mxCell>
        <mxCell id="KKwdq_n8aDNH_cKme6rT-30" value="" style="endArrow=classic;html=1;rounded=0;" parent="1" edge="1">
          <mxGeometry width="50" height="50" relative="1" as="geometry">
            <mxPoint x="630" y="390" as="sourcePoint" />
            <mxPoint x="540" y="470" as="targetPoint" />
          </mxGeometry>
        </mxCell>
        <mxCell id="KKwdq_n8aDNH_cKme6rT-31" value="" style="endArrow=classic;html=1;rounded=0;" parent="1" edge="1">
          <mxGeometry width="50" height="50" relative="1" as="geometry">
            <mxPoint x="629" y="390" as="sourcePoint" />
            <mxPoint x="719" y="470" as="targetPoint" />
          </mxGeometry>
        </mxCell>
        <mxCell id="KKwdq_n8aDNH_cKme6rT-32" value="Dispatchers.Default" style="rounded=0;whiteSpace=wrap;html=1;fillColor=#d5e8d4;strokeColor=#82b366;" parent="1" vertex="1">
          <mxGeometry x="490" y="470" width="110" height="30" as="geometry" />
        </mxCell>
        <mxCell id="KKwdq_n8aDNH_cKme6rT-33" value="SupervisorJobImpl" style="rounded=0;whiteSpace=wrap;html=1;fontStyle=0;fontSize=11;fillColor=#dae8fc;strokeColor=#6c8ebf;" parent="1" vertex="1">
          <mxGeometry x="660" y="470" width="110" height="30" as="geometry" />
        </mxCell>
        <mxCell id="KKwdq_n8aDNH_cKme6rT-34" value="StandaloneCoroutine1" style="rounded=0;whiteSpace=wrap;html=1;fontSize=10;fontStyle=1;fillColor=#dae8fc;strokeColor=#6c8ebf;" parent="1" vertex="1">
          <mxGeometry x="574" y="580" width="110" height="30" as="geometry" />
        </mxCell>
        <mxCell id="KKwdq_n8aDNH_cKme6rT-36" value="[key: CoroutineInterceptor]" style="text;html=1;align=center;verticalAlign=middle;resizable=0;points=[];autosize=1;strokeColor=none;fillColor=none;fontSize=10;" parent="1" vertex="1">
          <mxGeometry x="450" y="408" width="140" height="30" as="geometry" />
        </mxCell>
        <mxCell id="KKwdq_n8aDNH_cKme6rT-37" value="[key: Job]" style="text;html=1;align=center;verticalAlign=middle;resizable=0;points=[];autosize=1;strokeColor=none;fillColor=none;fontSize=10;" parent="1" vertex="1">
          <mxGeometry x="673" y="408" width="70" height="30" as="geometry" />
        </mxCell>
        <mxCell id="KKwdq_n8aDNH_cKme6rT-46" value="coroutineContext" style="rounded=0;whiteSpace=wrap;html=1;fillColor=#f5f5f5;fontColor=#333333;strokeColor=#666666;" parent="1" vertex="1">
          <mxGeometry x="575" y="360" width="110" height="30" as="geometry" />
        </mxCell>
        <mxCell id="ztQbeDY4LEWXai-P9pTU-14" value="" style="endArrow=classic;html=1;rounded=0;dashed=1;" parent="1" edge="1">
          <mxGeometry width="50" height="50" relative="1" as="geometry">
            <mxPoint x="720.16" y="500" as="sourcePoint" />
            <mxPoint x="630.16" y="580" as="targetPoint" />
          </mxGeometry>
        </mxCell>
        <mxCell id="ztQbeDY4LEWXai-P9pTU-15" value="" style="endArrow=classic;html=1;rounded=0;fontColor=#CCCCCC;strokeColor=#CCCCCC;dashed=1;" parent="1" edge="1">
          <mxGeometry width="50" height="50" relative="1" as="geometry">
            <mxPoint x="619.16" y="580" as="sourcePoint" />
            <mxPoint x="709.16" y="500" as="targetPoint" />
          </mxGeometry>
        </mxCell>
        <mxCell id="ztQbeDY4LEWXai-P9pTU-16" value="" style="endArrow=classic;html=1;rounded=0;strokeColor=#000000;dashed=1;" parent="1" edge="1">
          <mxGeometry width="50" height="50" relative="1" as="geometry">
            <mxPoint x="719.16" y="500" as="sourcePoint" />
            <mxPoint x="809.16" y="580" as="targetPoint" />
          </mxGeometry>
        </mxCell>
        <mxCell id="ztQbeDY4LEWXai-P9pTU-17" value="" style="endArrow=classic;html=1;rounded=0;dashed=1;strokeColor=#CCCCCC;" parent="1" edge="1">
          <mxGeometry width="50" height="50" relative="1" as="geometry">
            <mxPoint x="821.16" y="580" as="sourcePoint" />
            <mxPoint x="731.16" y="500" as="targetPoint" />
          </mxGeometry>
        </mxCell>
        <mxCell id="ztQbeDY4LEWXai-P9pTU-18" value="StandaloneCoroutine4" style="rounded=0;whiteSpace=wrap;html=1;fontSize=11;fillColor=#dae8fc;strokeColor=#6c8ebf;" parent="1" vertex="1">
          <mxGeometry x="764.16" y="580" width="110" height="30" as="geometry" />
        </mxCell>
        <mxCell id="59YT808uoA_Phh7gp6Ey-1" value="X" style="text;html=1;align=center;verticalAlign=middle;resizable=0;points=[];autosize=1;strokeColor=none;fillColor=none;fontColor=#FF9999;" vertex="1" parent="1">
          <mxGeometry x="624.16" y="690" width="30" height="30" as="geometry" />
        </mxCell>
      </root>
    </mxGraphModel>
  </diagram>
</mxfile>
